<?xml version="1.0" standalone="no"?>
<!DOCTYPE svg PUBLIC "-//W3C//DTD SVG 20010904//EN"
 "http://www.w3.org/TR/2001/REC-SVG-20010904/DTD/svg10.dtd">
<svg version="1.0" xmlns="http://www.w3.org/2000/svg"
 width="1041.000000pt" height="1118.000000pt" viewBox="0 0 1041.000000 1118.000000"
 preserveAspectRatio="xMidYMid meet">

<g transform="translate(0.000000,1118.000000) scale(0.100000,-0.100000)"
fill="#000000" stroke="none">
<path d="M4341 9222 c4 -127 13 -152 54 -152 49 0 224 -52 303 -91 104 -50
211 -152 247 -234 62 -140 98 -362 116 -720 6 -115 12 -220 15 -232 5 -28 23
-29 66 -4 55 32 293 113 492 167 28 8 53 19 57 26 4 6 10 48 14 92 9 114 2
1243 -8 1253 -5 4 -313 9 -684 11 l-675 3 3 -119z"/>
<path d="M6940 7939 c-168 -13 -423 -40 -432 -45 -4 -3 -58 -9 -120 -14 -398
-33 -976 -196 -1333 -376 -463 -234 -807 -519 -1086 -904 -192 -264 -321 -561
-424 -975 -92 -372 -107 -912 -39 -1435 35 -272 138 -720 213 -925 88 -241
107 -290 156 -400 75 -167 178 -360 192 -360 16 0 206 242 280 357 87 134 189
343 244 497 16 48 76 316 108 487 20 107 14 208 -20 329 -40 148 -77 329 -91
450 -15 128 -15 525 0 632 17 127 78 366 118 467 238 595 691 1065 1464 1517
302 177 916 436 1230 519 167 44 259 70 340 97 41 14 102 28 135 32 59 8 54
10 -30 16 -113 7 -214 20 -241 31 -38 16 -476 18 -664 3z"/>
<path d="M6486 7161 c-3 -5 -36 -23 -73 -41 -38 -18 -79 -41 -93 -50 -14 -10
-61 -37 -105 -60 -44 -24 -107 -60 -140 -80 -33 -20 -81 -49 -107 -64 l-48
-27 0 -1057 c0 -1385 -14 -1815 -69 -2142 -21 -126 -61 -302 -90 -395 -10 -33
-26 -89 -36 -125 -9 -36 -21 -76 -27 -90 -5 -14 -30 -94 -54 -178 -25 -84 -54
-178 -65 -208 -38 -102 -31 -96 229 188 153 167 257 268 350 337 71 54 208
119 272 130 30 6 93 17 140 25 47 9 157 19 245 22 88 3 164 8 168 11 4 2 -14
28 -40 57 -118 129 -245 340 -280 466 -91 328 -95 398 -98 1975 -1 699 -6
1280 -10 1293 -5 16 -15 22 -36 22 -15 0 -30 -4 -33 -9z"/>
<path d="M5668 6642 c-7 -10 -49 -47 -92 -82 -170 -137 -424 -427 -492 -562
l-23 -46 1 -794 c0 -436 -3 -845 -6 -908 -23 -392 -100 -802 -196 -1055 -72
-189 -124 -300 -195 -416 -186 -304 -394 -553 -638 -763 -325 -278 -664 -489
-1172 -728 -212 -100 -223 -104 -275 -118 -55 -15 -100 -37 -100 -50 0 -18
174 -10 321 14 79 13 200 31 269 41 156 21 438 90 652 160 214 70 237 80 425
173 801 398 1275 1039 1447 1957 67 362 89 511 106 725 9 126 21 2363 12 2433
-5 40 -23 48 -44 19z"/>
</g>
</svg>
